<?xml version="1.0" encoding="UTF-8" standalone="no"?>
<!-- Created with Inkscape (http://www.inkscape.org/) -->

<svg
   width="68mm"
   height="74mm"
   viewBox="0 0 240.94464 262.20455"
   id="svg2"
   version="1.1"
   inkscape:version="1.1.2 (b8e25be833, 2022-02-05)"
   sodipodi:docname="mouse.svg"
   inkscape:export-filename="C:\Users\ootid\Downloads\mouse_modifier_ctrl.png"
   inkscape:export-xdpi="50.09"
   inkscape:export-ydpi="50.09"
   xmlns:inkscape="http://www.inkscape.org/namespaces/inkscape"
   xmlns:sodipodi="http://sodipodi.sourceforge.net/DTD/sodipodi-0.dtd"
   xmlns="http://www.w3.org/2000/svg"
   xmlns:svg="http://www.w3.org/2000/svg"
   xmlns:rdf="http://www.w3.org/1999/02/22-rdf-syntax-ns#"
   xmlns:cc="http://creativecommons.org/ns#"
   xmlns:dc="http://purl.org/dc/elements/1.1/">
  <defs
     id="defs4">
    <inkscape:path-effect
       effect="powerstroke"
       id="path-effect4161"
       is_visible="true"
       offset_points="0,0.5"
       sort_points="true"
       interpolator_type="Linear"
       interpolator_beta="0.2"
       start_linecap_type="zerowidth"
       linejoin_type="round"
       miter_limit="4"
       end_linecap_type="zerowidth"
       cusp_linecap_type="round" />
    <inkscape:path-effect
       effect="powerstroke"
       id="path-effect4157"
       is_visible="true"
       offset_points="3.9557926,1.0826169"
       sort_points="true"
       interpolator_type="Linear"
       interpolator_beta="0.2"
       start_linecap_type="zerowidth"
       linejoin_type="round"
       miter_limit="4"
       end_linecap_type="zerowidth"
       cusp_linecap_type="round" />
    <inkscape:path-effect
       effect="powerstroke"
       id="path-effect4153"
       is_visible="true"
       offset_points="0,0.5"
       sort_points="true"
       interpolator_type="Linear"
       interpolator_beta="0.2"
       start_linecap_type="zerowidth"
       linejoin_type="round"
       miter_limit="4"
       end_linecap_type="zerowidth"
       cusp_linecap_type="round" />
  </defs>
  <sodipodi:namedview
     id="base"
     pagecolor="#f2f2f2"
     bordercolor="#666666"
     borderopacity="1.0"
     inkscape:pageopacity="0"
     inkscape:pageshadow="2"
     inkscape:zoom="2"
     inkscape:cx="158"
     inkscape:cy="170"
     inkscape:document-units="px"
     inkscape:current-layer="layer9"
     showgrid="false"
     inkscape:window-width="1920"
     inkscape:window-height="1017"
     inkscape:window-x="-8"
     inkscape:window-y="-8"
     inkscape:window-maximized="1"
     showguides="false"
     inkscape:pagecheckerboard="0"
     inkscape:snap-object-midpoints="true"
     inkscape:snap-center="true"
     inkscape:snap-page="true"
     inkscape:snap-bbox="false"
     inkscape:bbox-paths="true"
     inkscape:snap-bbox-midpoints="false"
     inkscape:bbox-nodes="true"
     inkscape:snap-bbox-edge-midpoints="true" />
  <metadata
     id="metadata7">
    <rdf:RDF>
      <cc:Work
         rdf:about="">
        <dc:format>image/svg+xml</dc:format>
        <dc:type
           rdf:resource="http://purl.org/dc/dcmitype/StillImage" />
      </cc:Work>
    </rdf:RDF>
  </metadata>
  <g
     inkscape:groupmode="layer"
     id="layer4"
     inkscape:label="クリック"
     style="display:inline">
    <path
       id="text15430-0"
       style="font-style:normal;font-variant:normal;font-weight:normal;font-stretch:normal;font-size:55px;line-height:1.25;font-family:'Corporate Logo Rounded ver2';-inkscape-font-specification:'Corporate Logo Rounded ver2';font-variant-ligatures:normal;font-variant-position:normal;font-variant-caps:normal;font-variant-numeric:normal;font-variant-alternates:normal;font-variant-east-asian:normal;font-feature-settings:normal;font-variation-settings:normal;text-indent:0;text-align:start;text-decoration-line:none;text-decoration-style:solid;text-decoration-color:#000000;letter-spacing:normal;word-spacing:normal;text-transform:none;writing-mode:lr-tb;direction:ltr;text-orientation:mixed;dominant-baseline:auto;baseline-shift:baseline;white-space:normal;display:inline;vector-effect:none;fill:#ffffff;fill-opacity:1;stroke:none;stroke-width:0.937499;stroke-linecap:butt;stroke-linejoin:miter;stroke-miterlimit:4;stroke-dasharray:none;stroke-dashoffset:0;stroke-opacity:1;-inkscape-stroke:none;stop-color:#000000"
       d="m 57.145241,152.96358 c -5.915251,-0.1227 -11.513403,4.23683 -12.994682,9.93788 -1.205646,3.55614 -2.888295,7.10314 -5.776203,9.60525 -3.604928,3.74944 -4.736261,9.66538 -2.679748,14.45673 1.241117,3.22294 3.712699,6.02977 6.923289,7.381 -2.705013,2.99668 -3.935165,7.23704 -3.235159,11.21553 0.801123,5.85799 5.800533,10.97064 11.749803,11.52794 4.217699,0.46529 8.172192,-1.44921 11.912679,-3.12645 7.482825,-3.47059 14.381262,-8.69973 18.708914,-15.82435 0.59686,-0.95742 1.16769,-1.93256 1.68212,-2.9372 1.12908,0.8805 2.41124,1.56415 3.76758,2.02148 -2.85032,5.68459 -1.37383,13.30719 3.71481,17.23696 3.72445,3.08935 9.143746,3.55175 13.559766,1.78192 3.34024,-1.22761 6.48574,-2.97382 9.39821,-5.0098 2.12609,-1.54118 4.05325,-3.35594 5.72565,-5.38017 0.69401,4.67174 4.10595,8.95131 8.71853,10.23426 3.59291,1.13271 7.44359,0.34177 10.86962,-0.97787 7.22369,-2.70395 13.2641,-8.00498 17.65599,-14.27006 -0.80912,4.37431 0.58173,9.11465 3.71877,12.29008 2.95395,3.14831 7.53093,4.65858 11.77154,3.79793 3.28921,-0.64234 6.33617,-2.12546 9.34709,-3.54486 7.06812,-3.49182 13.53895,-8.60658 17.6112,-15.44812 3.88344,-6.3075 6.3051,-13.53082 6.94093,-20.9127 0.29049,-5.11839 -1.23807,-10.61441 -5.13579,-14.13126 -3.69226,-3.41117 -8.91256,-4.65269 -13.83265,-4.39706 -0.60313,-0.0174 -1.31714,0.18485 -1.56562,-0.53487 -2.75563,-3.47966 -7.30327,-5.27629 -11.69336,-4.98828 -5.79428,0.14883 -11.10775,4.53416 -12.5066,10.1337 -0.22314,0.31657 -0.2221,1.46498 -0.72582,0.84676 -4.29657,-3.22134 -10.55123,-3.37492 -15.07227,-0.51757 -3.35418,-2.32716 -7.85219,-2.69684 -11.64453,-1.29493 -2.47633,-0.94596 -5.24349,-1.07087 -7.80859,-0.41992 -1.5281,-4.12232 -5.34577,-7.24647 -9.67054,-7.99742 -4.68258,-0.98616 -9.93136,0.33088 -13.22098,3.90733 -0.36441,0.45916 -0.68327,0.93658 -1.03325,0.16087 -2.23034,-2.53509 -5.477956,-4.08624 -8.840856,-4.30515 -4.80169,-0.49462 -10.0002,1.42875 -12.747089,5.51976 -0.30009,0.43149 -0.556633,0.89167 -0.795879,1.35914 -3.315305,-1.63545 -7.081839,-2.03424 -10.733202,-1.8722 -0.692852,0.21642 -0.853895,-0.58483 -1.280225,-0.94417 -2.645644,-3.06494 -6.75865,-4.72819 -10.783448,-4.58011 z" />
    <text
       xml:space="preserve"
       style="font-style:normal;font-variant:normal;font-weight:normal;font-stretch:normal;font-size:55px;line-height:1.25;font-family:'Corporate Logo Rounded ver2';-inkscape-font-specification:'Corporate Logo Rounded ver2';font-variant-ligatures:normal;font-variant-position:normal;font-variant-caps:normal;font-variant-numeric:normal;font-variant-alternates:normal;font-variant-east-asian:normal;font-feature-settings:normal;font-variation-settings:normal;text-indent:0;text-align:start;text-decoration-line:none;text-decoration-style:solid;text-decoration-color:#000000;letter-spacing:normal;word-spacing:normal;text-transform:none;writing-mode:lr-tb;direction:ltr;text-orientation:mixed;dominant-baseline:auto;baseline-shift:baseline;white-space:normal;display:inline;vector-effect:none;fill:#000000;fill-opacity:1;stroke:none;stroke-width:0.937499;stroke-linecap:butt;stroke-linejoin:miter;stroke-miterlimit:4;stroke-dasharray:none;stroke-dashoffset:0;stroke-opacity:1;-inkscape-stroke:none;stop-color:#000000"
       x="41.859013"
       y="203.37715"
       id="text15430"><tspan
         sodipodi:role="line"
         id="tspan15428"
         style="font-style:normal;font-variant:normal;font-weight:normal;font-stretch:normal;font-size:55px;line-height:1.25;font-family:'Corporate Logo Rounded ver2';-inkscape-font-specification:'Corporate Logo Rounded ver2';font-variant-ligatures:normal;font-variant-position:normal;font-variant-caps:normal;font-variant-numeric:normal;font-variant-alternates:normal;font-variant-east-asian:normal;font-feature-settings:normal;font-variation-settings:normal;text-indent:0;text-align:start;text-decoration-line:none;text-decoration-style:solid;text-decoration-color:#000000;letter-spacing:normal;word-spacing:normal;text-transform:none;writing-mode:lr-tb;direction:ltr;text-orientation:mixed;dominant-baseline:auto;baseline-shift:baseline;white-space:normal;vector-effect:none;fill:#000000;fill-opacity:1;stroke:none;stroke-width:0.937499;stroke-linecap:butt;stroke-linejoin:miter;stroke-miterlimit:4;stroke-dasharray:none;stroke-dashoffset:0;stroke-opacity:1;-inkscape-stroke:none;stop-color:#000000;stop-opacity:1"
         x="41.859013"
         y="203.37715">クリック</tspan></text>
  </g>
  <g
     inkscape:groupmode="layer"
     id="layer8"
     inkscape:label="中クリック"
     style="display:none">
    <path
       id="text15430-8-3"
       style="font-style:normal;font-variant:normal;font-weight:normal;font-stretch:normal;font-size:55px;line-height:1.25;font-family:'Corporate Logo Rounded ver2';-inkscape-font-specification:'Corporate Logo Rounded ver2';font-variant-ligatures:normal;font-variant-position:normal;font-variant-caps:normal;font-variant-numeric:normal;font-variant-alternates:normal;font-variant-east-asian:normal;font-feature-settings:normal;font-variation-settings:normal;text-indent:0;text-align:start;text-decoration-line:none;text-decoration-style:solid;text-decoration-color:#000000;letter-spacing:normal;word-spacing:normal;text-transform:none;writing-mode:lr-tb;direction:ltr;text-orientation:mixed;dominant-baseline:auto;baseline-shift:baseline;white-space:normal;display:inline;vector-effect:none;fill:#ffffff;fill-opacity:1;stroke:none;stroke-width:0.937499;stroke-linecap:butt;stroke-linejoin:miter;stroke-miterlimit:4;stroke-dasharray:none;stroke-dashoffset:0;stroke-opacity:1;-inkscape-stroke:none;stop-color:#000000"
       d="m 39.745862,149.59215 c -5.477727,0.22356 -10.504475,4.20939 -12.15625,9.40625 -2.889271,0.0378 -5.828547,-0.17146 -8.672771,0.43211 -6.324428,1.57004 -11.0681606,7.99098 -10.5419226,14.51594 0.04736,7.07433 -0.12625,14.15589 0.135036,21.22517 0.815245,6.60619 7.2732856,11.88094 13.8980176,11.46741 1.543192,0.0609 3.099159,-0.14777 4.564453,-0.63868 -0.0082,2.67094 0.326631,5.44303 1.770112,7.7539 2.889201,4.99083 9.128438,7.92185 14.792155,6.52369 6.34705,-1.3066 11.189146,-7.69343 10.650624,-14.16665 -0.137627,-0.68292 0.735558,-0.011 1.115234,-0.0543 2.886465,0.57269 5.95489,0.47313 8.751738,-0.47482 0.485607,-0.0924 1.205795,-0.61922 1.509601,-0.53855 -0.247534,3.95049 1.195441,7.98746 4.012099,10.79072 3.004586,3.13557 7.633816,4.59196 11.885065,3.65922 3.297297,-0.70432 6.363363,-2.18923 9.387947,-3.63536 6.94424,-3.47096 13.29423,-8.51865 17.31904,-15.2442 0.57077,-0.91666 1.10579,-1.85558 1.60912,-2.81091 1.1282,0.88242 2.41133,1.56509 3.76758,2.02344 -2.83473,5.64946 -1.38973,13.20316 3.61523,17.16406 3.72035,3.13242 9.16774,3.63904 13.61295,1.87174 3.45074,-1.27716 6.71081,-3.07358 9.69891,-5.21495 2.01888,-1.49688 3.85652,-3.23901 5.45767,-5.17632 0.7591,4.67598 4.16358,9.03893 8.85039,10.24229 4.24725,1.24711 8.73668,-0.0132 12.6439,-1.77724 6.38527,-2.90463 11.77473,-7.75222 15.76157,-13.48654 -0.4054,2.08805 -0.22929,4.16373 0.25782,6.1875 1.3478,5.20366 5.97591,9.51221 11.39087,10.0436 4.14646,0.50073 8.05088,-1.36525 11.7358,-3.00273 7.58289,-3.48343 14.61045,-8.73962 18.95903,-15.97538 4.04264,-6.51821 6.56898,-14.0204 7.06976,-21.68459 0.18705,-5.20648 -1.6374,-10.74766 -5.79611,-14.08495 -3.72259,-3.07229 -8.72816,-4.0808 -13.45428,-3.8394 -0.62304,0.10539 -1.1224,-0.0217 -1.3875,-0.63428 -2.72774,-3.37366 -7.15548,-5.13011 -11.45117,-4.89258 -5.82866,0.0768 -11.22961,4.45693 -12.64752,10.0881 -0.24384,0.30535 -0.22446,1.56061 -0.75338,0.8944 -4.30268,-3.20933 -10.54537,-3.3669 -15.0698,-0.51766 -3.36392,-2.27987 -7.83586,-2.71871 -11.62305,-1.29492 -2.48546,-0.93168 -5.25294,-1.06229 -7.82422,-0.41601 -1.51914,-4.09908 -5.30192,-7.21528 -9.6003,-7.98129 -4.35201,-0.92748 -9.20422,0.0633 -12.51493,3.13558 -0.49028,0.43378 -0.94966,0.95317 -1.36914,1.42188 -2.18906,-2.73375 -5.50793,-4.50691 -9.00286,-4.77329 -4.91853,-0.63223 -10.30134,1.34628 -13.08105,5.57407 -0.27264,0.40492 -0.51569,0.82939 -0.73836,1.26367 -3.39057,-1.66493 -7.24324,-2.03591 -10.97109,-1.86849 -0.5872,0.0571 -0.71283,-0.79084 -1.15685,-1.07632 -4.19743,-4.74769 -11.758615,-5.81928 -17.229669,-2.72641 -2.806922,1.50375 -4.961192,4.0875 -6.030351,7.07838 -0.145122,0.72128 -0.369733,0.56583 -0.703835,-0.007 -2.927766,-3.6466 -7.674758,-5.78441 -12.354687,-5.36485 -1.433842,5.1e-4 -2.867785,0.008 -4.301563,-3.8e-4 -1.383943,-4.54193 -5.359571,-8.14543 -10.012096,-9.09013 -1.237436,-0.28109 -2.511164,-0.35928 -3.776967,-0.31417 z" />
    <text
       xml:space="preserve"
       style="font-style:normal;font-variant:normal;font-weight:normal;font-stretch:normal;font-size:55px;line-height:1.25;font-family:'Corporate Logo Rounded ver2';-inkscape-font-specification:'Corporate Logo Rounded ver2';font-variant-ligatures:normal;font-variant-position:normal;font-variant-caps:normal;font-variant-numeric:normal;font-variant-alternates:normal;font-variant-east-asian:normal;font-feature-settings:normal;font-variation-settings:normal;text-indent:0;text-align:start;text-decoration-line:none;text-decoration-style:solid;text-decoration-color:#000000;letter-spacing:normal;word-spacing:normal;text-transform:none;writing-mode:lr-tb;direction:ltr;text-orientation:mixed;dominant-baseline:auto;baseline-shift:baseline;white-space:normal;display:inline;opacity:1;vector-effect:none;fill:#000000;fill-opacity:1;stroke:none;stroke-width:0.937499;stroke-linecap:butt;stroke-linejoin:miter;stroke-miterlimit:4;stroke-dasharray:none;stroke-dashoffset:0;stroke-opacity:1;-inkscape-stroke:none;stop-color:#000000;stop-opacity:1"
       x="13.169481"
       y="206.0034"
       id="text15430-8"><tspan
         sodipodi:role="line"
         id="tspan15428-4"
         style="font-style:normal;font-variant:normal;font-weight:normal;font-stretch:normal;font-size:55px;line-height:1.25;font-family:'Corporate Logo Rounded ver2';-inkscape-font-specification:'Corporate Logo Rounded ver2';font-variant-ligatures:normal;font-variant-position:normal;font-variant-caps:normal;font-variant-numeric:normal;font-variant-alternates:normal;font-variant-east-asian:normal;font-feature-settings:normal;font-variation-settings:normal;text-indent:0;text-align:start;text-decoration-line:none;text-decoration-style:solid;text-decoration-color:#000000;letter-spacing:normal;word-spacing:normal;text-transform:none;writing-mode:lr-tb;direction:ltr;text-orientation:mixed;dominant-baseline:auto;baseline-shift:baseline;white-space:normal;vector-effect:none;fill:#000000;fill-opacity:1;stroke:none;stroke-width:0.937499;stroke-linecap:butt;stroke-linejoin:miter;stroke-miterlimit:4;stroke-dasharray:none;stroke-dashoffset:0;stroke-opacity:1;-inkscape-stroke:none;stop-color:#000000;stop-opacity:1"
         x="13.169481"
         y="206.0034">中クリック</tspan></text>
  </g>
  <g
     inkscape:groupmode="layer"
     id="layer9"
     inkscape:label="右クリック"
     style="display:none">
    <path
       id="text15430-1-1"
       style="font-style:normal;font-variant:normal;font-weight:normal;font-stretch:normal;font-size:55px;line-height:1.25;font-family:'Corporate Logo Rounded ver2';-inkscape-font-specification:'Corporate Logo Rounded ver2';font-variant-ligatures:normal;font-variant-position:normal;font-variant-caps:normal;font-variant-numeric:normal;font-variant-alternates:normal;font-variant-east-asian:normal;font-feature-settings:normal;font-variation-settings:normal;text-indent:0;text-align:start;text-decoration-line:none;text-decoration-style:solid;text-decoration-color:#000000;letter-spacing:normal;word-spacing:normal;text-transform:none;writing-mode:lr-tb;direction:ltr;text-orientation:mixed;dominant-baseline:auto;baseline-shift:baseline;white-space:normal;display:inline;vector-effect:none;fill:#ffffff;fill-opacity:1;stroke:none;stroke-width:0.937499;stroke-linecap:butt;stroke-linejoin:miter;stroke-miterlimit:4;stroke-dasharray:none;stroke-dashoffset:0;stroke-opacity:1;-inkscape-stroke:none;stop-color:#000000"
       d="m 37.234984,149.88344 c -5.19334,0.0981 -10.047757,3.53521 -12.150391,8.23828 -2.950547,0.0241 -6.006197,-0.19619 -8.839844,0.7793 -5.979576,2.15601 -9.9509041,9.01477 -8.4277341,15.25977 0.697428,3.54004 3.0204811,6.65514 6.0683591,8.54297 -1.255487,1.42234 -2.711687,2.51657 -3.876145,4.0167 -4.0570491,5.39592 -3.1400921,13.89294 2.149193,18.15596 1.776647,1.57248 3.989765,2.62841 6.314843,3.08124 0.193428,2.90582 1.336674,5.74799 3.353547,7.86828 2.929753,3.25177 7.455406,4.86947 11.789031,4.43641 2.741427,-0.17104 5.444914,-1.20987 7.521485,-3.02149 2.601562,0 5.203125,1e-5 7.804687,0 2.756219,2.30606 6.497885,3.08777 10.015819,2.7496 4.091412,-0.2174 8.029382,-2.3823 10.417775,-5.70858 2.856206,3.6916 7.750539,5.7583 12.382991,4.92714 3.46329,-0.57303 6.62357,-2.20521 9.78498,-3.6498 7.21898,-3.58469 13.80573,-8.88133 17.8512,-15.94765 0.43009,-0.71833 0.83906,-1.45008 1.22888,-2.19102 1.12952,0.88455 2.41413,1.57021 3.77343,2.02735 -2.77664,5.52786 -1.47521,12.885 3.30874,16.89765 3.05123,2.70295 7.4034,3.74089 11.36704,2.85625 3.74992,-0.7769 7.12479,-2.70785 10.3829,-4.64133 2.75313,-1.7471 5.25792,-4.01428 7.33,-6.45632 0.72512,4.65181 4.11138,8.92081 8.71669,10.19699 3.39581,1.07856 7.04965,0.43619 10.31945,-0.76777 7.46643,-2.63724 13.71979,-8.05423 18.21581,-14.48977 -0.81839,4.38713 0.58159,9.14646 3.73244,12.32719 2.98383,3.17295 7.62076,4.66802 11.8894,3.75632 3.24792,-0.67218 6.26343,-2.13537 9.24505,-3.54173 6.94201,-3.43221 13.30474,-8.4273 17.37334,-15.10233 4.10032,-6.55478 6.65697,-14.11178 7.17002,-21.83569 0.17391,-5.14393 -1.57826,-10.61917 -5.64757,-13.96723 -3.74052,-3.18266 -8.84166,-4.21129 -13.64276,-3.97102 -0.67088,0.15542 -1.10044,-0.14086 -1.41586,-0.7118 -2.75229,-3.35122 -7.18737,-5.06578 -11.4775,-4.81113 -5.81115,0.12134 -11.1535,4.50402 -12.56729,10.11607 -0.22429,0.31465 -0.23256,1.47227 -0.71787,0.88002 -4.29592,-3.2504 -10.55727,-3.37505 -15.08593,-0.52539 -3.36579,-2.28661 -7.84719,-2.73314 -11.63672,-1.29492 -2.47907,-0.94433 -5.24848,-1.07033 -7.81641,-0.42188 -1.51114,-4.06269 -5.23605,-7.17403 -9.49853,-7.95678 -4.43138,-0.98623 -9.40144,0.0466 -12.73758,3.22467 -0.45374,0.38154 -0.87863,0.9516 -1.26389,1.29852 -2.19417,-2.74165 -5.52773,-4.51429 -9.0323,-4.77408 -4.94206,-0.61222 -10.33271,1.40454 -13.10051,5.66471 -0.30423,0.29672 -0.44116,1.07668 -0.79102,1.125 -3.31252,-1.59336 -7.05322,-1.96754 -10.68437,-1.81172 -0.69699,0.17415 -0.84703,-0.71582 -1.31429,-1.05724 -2.77539,-3.1497 -7.06915,-4.7113 -11.22152,-4.47439 -4.821468,0.17479 -9.417977,3.17518 -11.52591,7.51327 -2.754512,-3.15091 -6.999452,-4.88799 -11.173374,-4.59868 -3.667868,0.0587 -7.336241,0.0166 -11.00436,0.0264 -2.122559,-5.00047 -7.413024,-8.4334 -12.857422,-8.23633 z m 29.380859,30.53711 c -0.05345,0.40701 -0.548766,1.21001 -0.905386,0.61769 -0.93632,-0.48937 0.187455,-0.62989 0.650255,-0.88234 0.100186,-0.0209 0.171292,0.20494 0.255131,0.26465 z" />
    <text
       xml:space="preserve"
       style="font-style:normal;font-variant:normal;font-weight:normal;font-stretch:normal;font-size:55px;line-height:1.25;font-family:'Corporate Logo Rounded ver2';-inkscape-font-specification:'Corporate Logo Rounded ver2';font-variant-ligatures:normal;font-variant-position:normal;font-variant-caps:normal;font-variant-numeric:normal;font-variant-alternates:normal;font-variant-east-asian:normal;font-feature-settings:normal;font-variation-settings:normal;text-indent:0;text-align:start;text-decoration-line:none;text-decoration-style:solid;text-decoration-color:#000000;letter-spacing:normal;word-spacing:normal;text-transform:none;writing-mode:lr-tb;direction:ltr;text-orientation:mixed;dominant-baseline:auto;baseline-shift:baseline;white-space:normal;display:inline;opacity:1;vector-effect:none;fill:#000000;fill-opacity:1;stroke:none;stroke-width:0.937499;stroke-linecap:butt;stroke-linejoin:miter;stroke-miterlimit:4;stroke-dasharray:none;stroke-dashoffset:0;stroke-opacity:1;-inkscape-stroke:none;stop-color:#000000;stop-opacity:1"
       x="14.049481"
       y="205.6459"
       id="text15430-1"><tspan
         sodipodi:role="line"
         id="tspan15428-1"
         style="font-style:normal;font-variant:normal;font-weight:normal;font-stretch:normal;font-size:55px;line-height:1.25;font-family:'Corporate Logo Rounded ver2';-inkscape-font-specification:'Corporate Logo Rounded ver2';font-variant-ligatures:normal;font-variant-position:normal;font-variant-caps:normal;font-variant-numeric:normal;font-variant-alternates:normal;font-variant-east-asian:normal;font-feature-settings:normal;font-variation-settings:normal;text-indent:0;text-align:start;text-decoration-line:none;text-decoration-style:solid;text-decoration-color:#000000;letter-spacing:normal;word-spacing:normal;text-transform:none;writing-mode:lr-tb;direction:ltr;text-orientation:mixed;dominant-baseline:auto;baseline-shift:baseline;white-space:normal;vector-effect:none;fill:#000000;fill-opacity:1;stroke:none;stroke-width:0.937499;stroke-linecap:butt;stroke-linejoin:miter;stroke-miterlimit:4;stroke-dasharray:none;stroke-dashoffset:0;stroke-opacity:1;-inkscape-stroke:none;stop-color:#000000;stop-opacity:1"
         x="14.049481"
         y="205.6459">右クリック</tspan></text>
  </g>
  <g
     inkscape:groupmode="layer"
     id="layer5"
     inkscape:label="+"
     style="display:inline">
    <path
       id="text34092-2"
       style="font-style:normal;font-variant:normal;font-weight:normal;font-stretch:normal;font-size:55px;line-height:1.25;font-family:'Corporate Logo Rounded ver2';-inkscape-font-specification:'Corporate Logo Rounded ver2';font-variant-ligatures:normal;font-variant-position:normal;font-variant-caps:normal;font-variant-numeric:normal;font-variant-alternates:normal;font-variant-east-asian:normal;font-feature-settings:normal;font-variation-settings:normal;text-indent:0;text-align:start;text-decoration-line:none;text-decoration-style:solid;text-decoration-color:#000000;letter-spacing:normal;word-spacing:normal;text-transform:none;writing-mode:lr-tb;direction:ltr;text-orientation:mixed;dominant-baseline:auto;baseline-shift:baseline;white-space:normal;display:inline;vector-effect:none;fill:#ffffff;fill-opacity:1;stroke:none;stroke-width:0.937499;stroke-linecap:butt;stroke-linejoin:miter;stroke-miterlimit:4;stroke-dasharray:none;stroke-dashoffset:0;stroke-opacity:1;-inkscape-stroke:none;stop-color:#000000"
       d="m 120.39924,103.40094 c -5.83548,-0.10978 -11.23653,4.34286 -12.59462,9.95553 -0.17926,0.70533 -0.28957,1.42921 -0.3292,2.1558 -4.00699,0.35516 -7.705787,2.81339 -9.664047,6.3147 -2.32926,3.9648 -2.33926,9.20375 0.15151,13.09891 2.060847,3.32205 5.686677,5.6286 9.575037,6.061 0.22359,3.02503 1.5036,5.96925 3.70028,8.08176 3.62802,3.66467 9.54649,4.97166 14.28382,2.79397 4.34607,-1.84965 7.43257,-6.24134 7.83426,-10.93042 3.22791,-0.29776 6.31514,-1.861 8.38653,-4.36654 3.17624,-3.68205 4.10533,-9.24045 1.96793,-13.6614 -1.85565,-4.07282 -5.9752,-6.96074 -10.40525,-7.46229 -0.20107,-2.9859 -1.43672,-5.88981 -3.55913,-8.01589 -2.41559,-2.51662 -5.85341,-4.01979 -9.34712,-4.02513 z" />
    <text
       xml:space="preserve"
       style="font-style:normal;font-variant:normal;font-weight:normal;font-stretch:normal;font-size:55px;line-height:1.25;font-family:'Corporate Logo Rounded ver2';-inkscape-font-specification:'Corporate Logo Rounded ver2';font-variant-ligatures:normal;font-variant-position:normal;font-variant-caps:normal;font-variant-numeric:normal;font-variant-alternates:normal;font-variant-east-asian:normal;font-feature-settings:normal;font-variation-settings:normal;text-indent:0;text-align:start;text-decoration-line:none;text-decoration-style:solid;text-decoration-color:#000000;letter-spacing:normal;word-spacing:normal;text-transform:none;writing-mode:lr-tb;direction:ltr;text-orientation:mixed;dominant-baseline:auto;baseline-shift:baseline;white-space:normal;display:inline;vector-effect:none;fill:#000000;fill-opacity:1;stroke:none;stroke-width:0.937499;stroke-linecap:butt;stroke-linejoin:miter;stroke-miterlimit:4;stroke-dasharray:none;stroke-dashoffset:0;stroke-opacity:1;-inkscape-stroke:none;stop-color:#000000"
       x="103.69734"
       y="146.77727"
       id="text34092"><tspan
         sodipodi:role="line"
         id="tspan34090"
         style="font-style:normal;font-variant:normal;font-weight:normal;font-stretch:normal;font-size:55px;line-height:1.25;font-family:'Corporate Logo Rounded ver2';-inkscape-font-specification:'Corporate Logo Rounded ver2';font-variant-ligatures:normal;font-variant-position:normal;font-variant-caps:normal;font-variant-numeric:normal;font-variant-alternates:normal;font-variant-east-asian:normal;font-feature-settings:normal;font-variation-settings:normal;text-indent:0;text-align:start;text-decoration-line:none;text-decoration-style:solid;text-decoration-color:#000000;letter-spacing:normal;word-spacing:normal;text-transform:none;writing-mode:lr-tb;direction:ltr;text-orientation:mixed;dominant-baseline:auto;baseline-shift:baseline;white-space:normal;vector-effect:none;fill:#000000;fill-opacity:1;stroke:none;stroke-width:0.937499;stroke-linecap:butt;stroke-linejoin:miter;stroke-miterlimit:4;stroke-dasharray:none;stroke-dashoffset:0;stroke-opacity:1;-inkscape-stroke:none;stop-color:#000000;stop-opacity:1"
         x="103.69734"
         y="146.77727">+</tspan></text>
  </g>
  <g
     inkscape:groupmode="layer"
     id="layer7"
     inkscape:label="Win"
     style="display:none">
    <path
       id="text13500-9"
       style="font-style:normal;font-variant:normal;font-weight:normal;font-stretch:normal;font-size:55px;line-height:1.25;font-family:'Corporate Logo Rounded ver2';-inkscape-font-specification:'Corporate Logo Rounded ver2';font-variant-ligatures:normal;font-variant-position:normal;font-variant-caps:normal;font-variant-numeric:normal;font-variant-alternates:normal;font-variant-east-asian:normal;font-feature-settings:normal;font-variation-settings:normal;text-indent:0;text-align:start;text-decoration-line:none;text-decoration-style:solid;text-decoration-color:#000000;letter-spacing:normal;word-spacing:normal;text-transform:none;writing-mode:lr-tb;direction:ltr;text-orientation:mixed;dominant-baseline:auto;baseline-shift:baseline;white-space:normal;display:inline;vector-effect:none;fill:#ffffff;fill-opacity:1;stroke:none;stroke-width:0.937499;stroke-linecap:butt;stroke-linejoin:miter;stroke-miterlimit:4;stroke-dasharray:none;stroke-dashoffset:0;stroke-opacity:1;-inkscape-stroke:none;stop-color:#000000"
       d="m 128.30533,44.445975 c -3.95162,0.13532 -7.84725,1.882783 -10.49609,4.832031 -4.55843,-1.244652 -9.74549,-0.03999 -13.19726,3.212891 -4.16078,-3.820318 -10.657171,-4.939996 -15.774018,-2.449477 -1.39144,0.648562 -2.676419,1.523264 -3.800205,2.568617 -3.620133,-3.429151 -9.109735,-4.837627 -13.884737,-3.268377 -6.118095,1.8463 -10.701994,8.203181 -9.994169,14.641424 0.470129,3.880729 1.365665,7.692464 1.990476,11.549004 1.459963,7.894421 2.792899,15.815912 4.425391,23.675557 1.639102,5.699935 7.396812,9.907015 13.336833,9.654135 3.415906,0.0178 7.012219,0.3316 10.21019,-1.11697 1.245281,-0.5359 2.41152,-1.25632 3.447266,-2.13086 2.758731,2.35871 6.457933,3.47347 10.062073,3.261 3.48155,0.0535 7.18377,0.21596 10.33613,-1.52112 1.34134,-0.69208 2.56449,-1.61215 3.6057,-2.70473 3.24986,3.58812 8.38858,5.4434 13.16432,4.43869 2.247,-0.43184 4.36876,-1.44557 6.15795,-2.86642 3.91323,3.14039 9.54852,4.06852 14.1856,2.05592 1.47862,-0.60581 2.85208,-1.50458 4.04877,-2.53248 3.85766,3.41465 9.6368,4.62225 14.45663,2.66602 5.81379,-2.18155 9.77608,-8.441275 9.21983,-14.633605 -0.0827,-6.072732 0.22406,-12.163258 -0.28786,-18.221795 -0.69331,-5.60039 -3.37157,-11.232081 -8.18351,-14.408703 -5.59657,-3.725309 -13.07451,-3.950518 -19.15431,-1.288643 -2.55859,-1.221493 -5.4904,-1.639869 -8.29297,-1.197265 -0.0245,-4.769483 -2.49703,-9.562571 -6.67375,-11.982941 -2.65267,-1.624553 -5.80966,-2.364471 -8.90828,-2.231903 z" />
    <text
       xml:space="preserve"
       style="font-style:normal;font-variant:normal;font-weight:normal;font-stretch:normal;font-size:55px;line-height:1.25;font-family:'Corporate Logo Rounded ver2';-inkscape-font-specification:'Corporate Logo Rounded ver2';font-variant-ligatures:normal;font-variant-position:normal;font-variant-caps:normal;font-variant-numeric:normal;font-variant-alternates:normal;font-variant-east-asian:normal;font-feature-settings:normal;font-variation-settings:normal;text-indent:0;text-align:start;text-decoration-line:none;text-decoration-style:solid;text-decoration-color:#000000;letter-spacing:normal;word-spacing:normal;text-transform:none;writing-mode:lr-tb;direction:ltr;text-orientation:mixed;dominant-baseline:auto;baseline-shift:baseline;white-space:normal;display:inline;opacity:1;vector-effect:none;fill:#000000;fill-opacity:1;stroke:none;stroke-width:0.937499;stroke-linecap:butt;stroke-linejoin:miter;stroke-miterlimit:4;stroke-dasharray:none;stroke-dashoffset:0;stroke-opacity:1;-inkscape-stroke:none;stop-color:#000000;stop-opacity:1"
       x="68.817513"
       y="887.48474"
       id="text13500"
       transform="translate(0,-790.15733)"><tspan
         sodipodi:role="line"
         id="tspan13498"
         style="font-style:normal;font-variant:normal;font-weight:normal;font-stretch:normal;font-size:55px;line-height:1.25;font-family:'Corporate Logo Rounded ver2';-inkscape-font-specification:'Corporate Logo Rounded ver2';font-variant-ligatures:normal;font-variant-position:normal;font-variant-caps:normal;font-variant-numeric:normal;font-variant-alternates:normal;font-variant-east-asian:normal;font-feature-settings:normal;font-variation-settings:normal;text-indent:0;text-align:start;text-decoration-line:none;text-decoration-style:solid;text-decoration-color:#000000;letter-spacing:normal;word-spacing:normal;text-transform:none;writing-mode:lr-tb;direction:ltr;text-orientation:mixed;dominant-baseline:auto;baseline-shift:baseline;white-space:normal;vector-effect:none;fill:#000000;fill-opacity:1;stroke:none;stroke-width:0.937499;stroke-linecap:butt;stroke-linejoin:miter;stroke-miterlimit:4;stroke-dasharray:none;stroke-dashoffset:0;stroke-opacity:1;-inkscape-stroke:none;stop-color:#000000;stop-opacity:1"
         x="68.817513"
         y="887.48474">Win</tspan></text>
  </g>
  <g
     inkscape:groupmode="layer"
     id="layer6"
     inkscape:label="Alt"
     style="display:none">
    <path
       id="text12536-7"
       style="font-style:normal;font-variant:normal;font-weight:normal;font-stretch:normal;font-size:55px;line-height:1.25;font-family:'Corporate Logo Rounded ver2';-inkscape-font-specification:'Corporate Logo Rounded ver2';font-variant-ligatures:normal;font-variant-position:normal;font-variant-caps:normal;font-variant-numeric:normal;font-variant-alternates:normal;font-variant-east-asian:normal;font-feature-settings:normal;font-variation-settings:normal;text-indent:0;text-align:start;text-decoration-line:none;text-decoration-style:solid;text-decoration-color:#000000;letter-spacing:normal;word-spacing:normal;text-transform:none;writing-mode:lr-tb;direction:ltr;text-orientation:mixed;dominant-baseline:auto;baseline-shift:baseline;white-space:normal;display:inline;vector-effect:none;fill:#ffffff;fill-opacity:1;stroke:none;stroke-width:0.937499;stroke-linecap:butt;stroke-linejoin:miter;stroke-miterlimit:4;stroke-dasharray:none;stroke-dashoffset:0;stroke-opacity:1;-inkscape-stroke:none;stop-color:#000000"
       d="m 126.09767,44.938852 c -5.71599,-0.07244 -11.08436,3.844185 -13.16602,9.09961 -2.86419,-3.844625 -7.73546,-6.035714 -12.51052,-5.683032 -3.548136,-0.08855 -7.347323,-0.105317 -10.477713,1.818024 -3.633472,1.998217 -6.111486,5.715184 -7.030884,9.711912 -3.270657,10.521841 -6.614487,21.021374 -9.761892,31.580003 -1.49957,6.091186 1.88577,12.808351 7.441173,15.576991 4.225572,2.14303 9.528882,1.93169 13.55762,-0.57188 2.04461,-1.23241 3.77468,-2.98756 4.9541,-5.06483 2.565836,4.64451 7.974396,7.37919 13.226686,7.00649 2.62583,-0.15635 5.22197,-1.03614 7.33776,-2.61196 4.26849,2.86495 9.77,3.7095 14.75003,2.55641 2.04321,-0.52395 3.96303,-1.53491 5.53513,-2.94313 4.39801,3.01756 9.9509,3.83158 15.17,3.26815 3.13426,-0.27576 6.32068,-1.27045 8.64167,-3.48123 3.50918,-3.15647 5.23228,-8.272587 3.97544,-12.872856 -1.01162,-3.938881 -3.95314,-7.319763 -7.70508,-8.880859 0.009,-0.396676 0.69844,-0.371092 0.94726,-0.636719 4.19051,-2.278282 6.96905,-6.942414 6.8462,-11.726937 -0.0135,-4.927091 -3.02364,-9.744216 -7.54824,-11.758387 -0.48797,-0.201977 -0.99192,-0.343975 -1.03254,-0.949351 -1.68169,-4.836084 -6.27473,-8.518848 -11.38779,-9.00373 -3.29749,-0.371523 -6.71608,0.520211 -9.41669,2.448171 -2.58249,-4.195608 -7.37849,-7.010501 -12.3457,-6.88086 z" />
    <text
       xml:space="preserve"
       style="font-style:normal;font-variant:normal;font-weight:normal;font-stretch:normal;font-size:55px;line-height:1.25;font-family:'Corporate Logo Rounded ver2';-inkscape-font-specification:'Corporate Logo Rounded ver2';font-variant-ligatures:normal;font-variant-position:normal;font-variant-caps:normal;font-variant-numeric:normal;font-variant-alternates:normal;font-variant-east-asian:normal;font-feature-settings:normal;font-variation-settings:normal;text-indent:0;text-align:start;text-decoration-line:none;text-decoration-style:solid;text-decoration-color:#000000;letter-spacing:normal;word-spacing:normal;text-transform:none;writing-mode:lr-tb;direction:ltr;text-orientation:mixed;dominant-baseline:auto;baseline-shift:baseline;white-space:normal;display:inline;opacity:1;vector-effect:none;fill:#000000;fill-opacity:1;stroke:none;stroke-width:0.937499;stroke-linecap:butt;stroke-linejoin:miter;stroke-miterlimit:4;stroke-dasharray:none;stroke-dashoffset:0;stroke-opacity:1;-inkscape-stroke:none;stop-color:#000000;stop-opacity:1"
       x="81.092323"
       y="886.65973"
       id="text12536"
       transform="translate(0,-790.15733)"><tspan
         sodipodi:role="line"
         id="tspan12534"
         style="font-style:normal;font-variant:normal;font-weight:normal;font-stretch:normal;font-size:55px;line-height:1.25;font-family:'Corporate Logo Rounded ver2';-inkscape-font-specification:'Corporate Logo Rounded ver2';font-variant-ligatures:normal;font-variant-position:normal;font-variant-caps:normal;font-variant-numeric:normal;font-variant-alternates:normal;font-variant-east-asian:normal;font-feature-settings:normal;font-variation-settings:normal;text-indent:0;text-align:start;text-decoration-line:none;text-decoration-style:solid;text-decoration-color:#000000;letter-spacing:normal;word-spacing:normal;text-transform:none;writing-mode:lr-tb;direction:ltr;text-orientation:mixed;dominant-baseline:auto;baseline-shift:baseline;white-space:normal;vector-effect:none;fill:#000000;fill-opacity:1;stroke:none;stroke-width:0.937499;stroke-linecap:butt;stroke-linejoin:miter;stroke-miterlimit:4;stroke-dasharray:none;stroke-dashoffset:0;stroke-opacity:1;-inkscape-stroke:none;stop-color:#000000;stop-opacity:1"
         x="81.092323"
         y="886.65973">Alt</tspan></text>
  </g>
  <g
     inkscape:groupmode="layer"
     id="layer3"
     inkscape:label="Shift"
     style="display:none">
    <path
       id="text11410-1"
       style="font-style:normal;font-variant:normal;font-weight:normal;font-stretch:normal;font-size:55px;line-height:1.25;font-family:'Corporate Logo Rounded ver2';-inkscape-font-specification:'Corporate Logo Rounded ver2';font-variant-ligatures:normal;font-variant-position:normal;font-variant-caps:normal;font-variant-numeric:normal;font-variant-alternates:normal;font-variant-east-asian:normal;font-feature-settings:normal;font-variation-settings:normal;text-indent:0;text-align:start;text-decoration-line:none;text-decoration-style:solid;text-decoration-color:#000000;letter-spacing:normal;word-spacing:normal;text-transform:none;writing-mode:lr-tb;direction:ltr;text-orientation:mixed;dominant-baseline:auto;baseline-shift:baseline;white-space:normal;display:inline;vector-effect:none;fill:#fefefe;fill-opacity:1;stroke:none;stroke-width:0.937499;stroke-linecap:butt;stroke-linejoin:miter;stroke-miterlimit:4;stroke-dasharray:none;stroke-dashoffset:0;stroke-opacity:1;-inkscape-stroke:none;stop-color:#000000"
       d="m 131.06805,44.288616 c -6.12827,0.110846 -12.12363,4.458243 -13.56455,10.514666 -0.40176,1.459364 -0.55941,2.983974 -0.48819,4.4951 -2.30326,-0.920135 -4.78556,-1.372083 -7.26367,-1.375 -0.61904,-5.274894 -4.55443,-9.881237 -9.55612,-11.559743 -4.621633,-1.688983 -10.051253,-0.589102 -13.750275,2.623007 -0.968194,0.822738 -1.837302,1.766961 -2.55884,2.813689 -8.253964,-4.549851 -18.907229,-4.788484 -27.11669,-0.0066 -5.578518,3.145227 -9.717864,8.859487 -10.611519,15.238744 -0.84881,5.636093 0.727163,11.597568 4.327818,16.027577 -3.708443,3.378722 -5.343438,8.872613 -3.951275,13.711551 1.042529,4.034603 4.040072,7.439763 7.82428,9.143583 8.303491,4.31057 18.654101,4.90768 27.171437,0.85219 1.28336,-0.60909 2.504644,-1.34565 3.65673,-2.17607 3.644431,3.94398 9.612151,5.6716 14.741231,3.91724 1.871693,-0.6113 3.614673,-1.61402 5.086893,-2.92115 4.07184,3.59699 10.28427,4.70398 15.23888,2.34013 1.02259,-0.46329 1.99246,-1.04621 2.8705,-1.74638 4.0224,3.12774 9.79283,3.97086 14.4414,1.76953 1.42646,-0.65273 2.75108,-1.5284 3.89649,-2.60156 3.62537,3.38701 9.08645,4.77821 13.8356,3.2035 3.17706,-0.98299 5.94063,-3.15466 7.76206,-5.9242 2.76763,3.44961 6.86428,5.68011 11.19389,6.44721 3.96942,0.7433 8.12689,0.53046 12.00532,-0.58002 5.69785,-1.9949 9.63436,-8.27893 8.58143,-14.285387 -0.65387,-4.447174 -3.8213,-8.376972 -7.94666,-10.111105 0.0362,-0.388375 0.70957,-0.376096 0.9707,-0.642578 4.2371,-2.309446 7.01915,-7.070721 6.81643,-11.910518 -0.0842,-4.884746 -3.11359,-9.621405 -7.61028,-11.593181 -0.53036,-0.167003 -0.93112,-0.405871 -0.9932,-0.998053 -1.6698,-4.68582 -6.06527,-8.29813 -11.03109,-8.859376 -1.51175,-0.210716 -3.0621,-0.168204 -4.55881,0.132613 -2.57014,-3.150576 -6.62635,-4.929054 -10.67072,-4.90942 -5.63743,-0.363365 -11.6085,1.013321 -15.966,4.75317 -2.67017,-3.648046 -7.14755,-5.699618 -11.62066,-5.788473 -0.38744,-0.01023 -0.77513,-0.0069 -1.16254,0.0053 z" />
    <text
       xml:space="preserve"
       style="font-style:normal;font-variant:normal;font-weight:normal;font-stretch:normal;font-size:55px;line-height:1.25;font-family:'Corporate Logo Rounded ver2';-inkscape-font-specification:'Corporate Logo Rounded ver2';font-variant-ligatures:normal;font-variant-position:normal;font-variant-caps:normal;font-variant-numeric:normal;font-variant-alternates:normal;font-variant-east-asian:normal;font-feature-settings:normal;font-variation-settings:normal;text-indent:0;text-align:start;text-decoration-line:none;text-decoration-style:solid;text-decoration-color:#000000;letter-spacing:normal;word-spacing:normal;text-transform:none;writing-mode:lr-tb;direction:ltr;text-orientation:mixed;dominant-baseline:auto;baseline-shift:baseline;white-space:normal;display:inline;opacity:1;vector-effect:none;fill:#000000;fill-opacity:1;stroke:none;stroke-width:0.937499;stroke-linecap:butt;stroke-linejoin:miter;stroke-miterlimit:4;stroke-dasharray:none;stroke-dashoffset:0;stroke-opacity:1;-inkscape-stroke:none;stop-color:#000000;stop-opacity:1"
       x="51.63982"
       y="97.162369"
       id="text11410"><tspan
         sodipodi:role="line"
         id="tspan11408"
         style="font-style:normal;font-variant:normal;font-weight:normal;font-stretch:normal;font-size:55px;line-height:1.25;font-family:'Corporate Logo Rounded ver2';-inkscape-font-specification:'Corporate Logo Rounded ver2';font-variant-ligatures:normal;font-variant-position:normal;font-variant-caps:normal;font-variant-numeric:normal;font-variant-alternates:normal;font-variant-east-asian:normal;font-feature-settings:normal;font-variation-settings:normal;text-indent:0;text-align:start;text-decoration-line:none;text-decoration-style:solid;text-decoration-color:#000000;letter-spacing:normal;word-spacing:normal;text-transform:none;writing-mode:lr-tb;direction:ltr;text-orientation:mixed;dominant-baseline:auto;baseline-shift:baseline;white-space:normal;vector-effect:none;fill:#000000;fill-opacity:1;stroke:none;stroke-width:0.937499;stroke-linecap:butt;stroke-linejoin:miter;stroke-miterlimit:4;stroke-dasharray:none;stroke-dashoffset:0;stroke-opacity:1;-inkscape-stroke:none;stop-color:#000000;stop-opacity:1"
         x="51.63982"
         y="97.162369">Shift</tspan></text>
  </g>
  <g
     inkscape:groupmode="layer"
     id="layer2"
     inkscape:label="Ctrl"
     style="display:inline">
    <path
       id="text9822-1"
       style="font-style:normal;font-variant:normal;font-weight:normal;font-stretch:normal;font-size:55px;line-height:1.25;font-family:'Corporate Logo Rounded ver2';-inkscape-font-specification:'Corporate Logo Rounded ver2';font-variant-ligatures:normal;font-variant-position:normal;font-variant-caps:normal;font-variant-numeric:normal;font-variant-alternates:normal;font-variant-east-asian:normal;font-feature-settings:normal;font-variation-settings:normal;text-indent:0;text-align:start;text-decoration-line:none;text-decoration-style:solid;text-decoration-color:#000000;letter-spacing:normal;word-spacing:normal;text-transform:none;writing-mode:lr-tb;direction:ltr;text-orientation:mixed;dominant-baseline:auto;baseline-shift:baseline;white-space:normal;display:inline;vector-effect:none;fill:#ffffff;fill-opacity:1;stroke:none;stroke-width:0.937499;stroke-linecap:butt;stroke-linejoin:miter;stroke-miterlimit:4;stroke-dasharray:none;stroke-dashoffset:0;stroke-opacity:1;-inkscape-stroke:none;stop-color:#000000"
       d="m 162.28711,44.943359 c -6.87664,-0.09295 -13.22722,5.606069 -14.00781,12.414063 -2.09791,0.146719 -4.14971,0.748331 -6.04688,1.636719 -4.16244,-2.040936 -9.38511,-1.82286 -13.29687,0.699218 -0.49363,-0.328896 -1.16502,-0.474375 -1.58852,-0.827839 -1.538,-5.061988 -6.25695,-8.985214 -11.53673,-9.486449 -3.89319,-0.456184 -7.95538,0.890103 -10.80835,3.57796 -3.10218,-2.578191 -6.983233,-4.088542 -10.909128,-4.866375 -9.530042,-1.779059 -19.900967,1.743985 -26.229386,9.123713 -4.955114,5.657915 -7.436376,13.215402 -7.480068,20.684031 -0.130161,7.743205 2.116452,15.751696 7.29632,21.642616 4.784553,5.546554 11.936748,8.767194 19.194031,9.245424 6.5425,0.47179 13.328191,-1.35703 18.487611,-5.45246 3.62396,3.59988 8.74012,5.42837 13.80102,5.4903 2.99075,0.0756 6.06645,-0.18233 8.87217,-1.2787 0.61888,-0.26124 1.20121,-0.5985 1.77603,-0.94402 4.56157,2.66763 10.64946,2.5628 15,-0.5 2.48461,-1.64628 4.39943,-4.21012 5.47656,-6.892576 1.68266,3.573946 4.62567,6.570546 8.29883,8.083986 4.45807,1.91469 9.69989,2.12586 14.22656,0.32617 5.64426,-2.53464 8.99984,-9.345128 7.36434,-15.349437 -0.5503,-2.429973 -1.74211,-4.721776 -3.46395,-6.527515 -0.0541,-9.440776 0.0929,-18.886264 -0.12365,-28.323848 -0.74296,-6.959297 -7.2984,-12.700462 -14.30213,-12.474981 z m -71.642579,30.53711 c 1.623824,0.873503 3.490007,1.184196 5.316407,1.226562 0.432731,0.9421 0.979223,1.831604 1.617187,2.648438 -2.763463,-0.131771 -5.576163,0.562794 -7.917969,2.046875 -0.656982,-1.895142 -0.550712,-4.004737 -0.0594,-5.922026 0.09987,-0.833076 0.578897,-0.119571 1.043778,1.51e-4 z" />
    <text
       xml:space="preserve"
       style="font-style:normal;font-variant:normal;font-weight:normal;font-stretch:normal;font-size:55px;line-height:1.25;font-family:'Corporate Logo Rounded ver2';-inkscape-font-specification:'Corporate Logo Rounded ver2';font-variant-ligatures:normal;font-variant-position:normal;font-variant-caps:normal;font-variant-numeric:normal;font-variant-alternates:normal;font-variant-east-asian:normal;font-feature-settings:normal;font-variation-settings:normal;text-indent:0;text-align:start;text-decoration-line:none;text-decoration-style:solid;text-decoration-color:#000000;letter-spacing:normal;word-spacing:normal;text-transform:none;writing-mode:lr-tb;direction:ltr;text-orientation:mixed;dominant-baseline:auto;baseline-shift:baseline;white-space:normal;display:inline;vector-effect:none;fill:#000000;fill-opacity:1;stroke:none;stroke-width:0.937499;stroke-linecap:butt;stroke-linejoin:miter;stroke-miterlimit:4;stroke-dasharray:none;stroke-dashoffset:0;stroke-opacity:1;-inkscape-stroke:none;stop-color:#000000"
       x="66.902336"
       y="96.502365"
       id="text9822"><tspan
         sodipodi:role="line"
         id="tspan9820"
         style="font-style:normal;font-variant:normal;font-weight:normal;font-stretch:normal;font-size:55px;line-height:1.25;font-family:'Corporate Logo Rounded ver2';-inkscape-font-specification:'Corporate Logo Rounded ver2';font-variant-ligatures:normal;font-variant-position:normal;font-variant-caps:normal;font-variant-numeric:normal;font-variant-alternates:normal;font-variant-east-asian:normal;font-feature-settings:normal;font-variation-settings:normal;text-indent:0;text-align:start;text-decoration-line:none;text-decoration-style:solid;text-decoration-color:#000000;letter-spacing:normal;word-spacing:normal;text-transform:none;writing-mode:lr-tb;direction:ltr;text-orientation:mixed;dominant-baseline:auto;baseline-shift:baseline;white-space:normal;vector-effect:none;fill:#000000;fill-opacity:1;stroke:none;stroke-width:0.937499;stroke-linecap:butt;stroke-linejoin:miter;stroke-miterlimit:4;stroke-dasharray:none;stroke-dashoffset:0;stroke-opacity:1;-inkscape-stroke:none;stop-color:#000000;stop-opacity:1"
         x="66.902336"
         y="96.502365">Ctrl</tspan></text>
  </g>
</svg>
